<?xml version="1.0" encoding="UTF-8" standalone="no"?><svg xmlns="http://www.w3.org/2000/svg" xmlns:xlink="http://www.w3.org/1999/xlink" fill="#000000" height="1997.3" preserveAspectRatio="xMidYMid meet" version="1" viewBox="0.0 0.0 1861.6 1997.3" width="1861.6" zoomAndPan="magnify"><defs><clipPath id="a"><path d="M 846 0 L 1861.570312 0 L 1861.570312 487 L 846 487 Z M 846 0"/></clipPath><clipPath id="b"><path d="M 0 1059 L 859 1059 L 859 1997.300781 L 0 1997.300781 Z M 0 1059"/></clipPath></defs><g><g clip-path="url(#a)" id="change1_1"><path d="M 870.34375 333.164062 C 876.035156 333.617188 881.019531 334.230469 887.394531 335.566406 C 895.128906 337.011719 908.148438 340.664062 918.617188 346.03125 C 920.390625 346.914062 922.101562 347.90625 923.824219 348.863281 L 923.824219 157.964844 L 1599.9375 157.964844 L 1599.9375 486.824219 C 1624.875 475.046875 1651.023438 467.265625 1676.78125 463.984375 C 1677.035156 463.945312 1677.292969 463.910156 1677.539062 463.871094 L 1677.539062 463.199219 C 1797.167969 338.605469 1943.953125 148.128906 1805.378906 150.015625 C 1778.359375 150.394531 1732.644531 173.96875 1677.539062 210.570312 L 1677.539062 95.914062 C 1677.539062 42.945312 1634.578125 -0.00390625 1581.609375 -0.00390625 L 942.144531 -0.00390625 C 889.175781 -0.00390625 846.238281 42.945312 846.238281 95.914062 L 846.238281 333.914062 C 848.484375 333.617188 850.730469 333.3125 852.949219 333.164062 C 858.902344 332.726562 864.730469 332.773438 870.34375 333.164062" fill="#f66b00"/></g><g id="change1_2"><path d="M 1660.070312 1202.457031 C 1647 1206.117188 1632.4375 1207.808594 1616.960938 1207.078125 C 1611.445312 1206.828125 1605.730469 1206.125 1599.9375 1204.964844 L 1599.9375 1241.558594 L 1074.125 1241.558594 C 1073.433594 1244.246094 1072.734375 1246.945312 1072.023438 1249.636719 C 1069.285156 1260.097656 1065.960938 1270.425781 1062.472656 1280.648438 C 1064.140625 1267.667969 1065.480469 1254.628906 1066.445312 1241.558594 C 1068.894531 1208.726562 1069.195312 1175.785156 1067.679688 1143.578125 C 1061.003906 1001.414062 1018.925781 873.507812 969.34375 833.03125 C 963.183594 828 956.910156 824.304688 950.578125 822.113281 C 952.757812 812.28125 954.925781 801.878906 957.035156 791.050781 C 958.804688 781.953125 960.53125 772.546875 962.175781 762.882812 C 976.367188 679.59375 984.574219 577.941406 964.667969 499.40625 C 956.414062 466.84375 943.328125 438.25 923.828125 416.597656 C 922.578125 415.21875 921.300781 413.859375 920 412.542969 C 909.652344 401.972656 897.625 393.257812 883.699219 386.773438 C 869.601562 380.214844 857.210938 377.425781 846.242188 377.757812 C 807.636719 378.898438 786.84375 419.140625 773.101562 474.046875 C 753.3125 553.097656 748.097656 662.445312 725.238281 728.992188 C 684.308594 848.140625 588.503906 880.609375 486.535156 1089.394531 C 489.894531 1095.117188 493.269531 1100.835938 496.617188 1106.566406 L 531.980469 1166.90625 L 549.339844 1196.527344 C 566.855469 1226.558594 584.628906 1256.417969 601.929688 1286.578125 L 654.039062 1376.90625 L 680.09375 1422.078125 L 705.929688 1467.378906 L 743.640625 1533.796875 L 757.433594 1558.089844 L 770.5 1581.417969 L 786.230469 1618.078125 L 1298.011719 1472.636719 L 1010.292969 1458.238281 C 1010.316406 1458.207031 1010.335938 1458.167969 1010.355469 1458.128906 C 1010.375 1458.089844 1010.394531 1458.058594 1010.414062 1458.019531 L 1343.425781 1459.726562 L 1349.539062 1457.988281 L 1581.617188 1457.988281 C 1634.589844 1457.988281 1677.546875 1415.039062 1677.546875 1362.066406 L 1677.546875 1196.566406 C 1674.996094 1197.617188 1672.339844 1198.507812 1669.695312 1199.488281 C 1666.546875 1200.566406 1663.4375 1201.695312 1660.070312 1202.457031" fill="#f66b00"/></g><g clip-path="url(#b)" id="change1_8"><path d="M 563.304688 1790.351562 C 529.957031 1805.269531 490.824219 1790.339844 475.898438 1756.988281 C 460.972656 1723.648438 475.90625 1684.511719 509.253906 1669.589844 C 542.601562 1654.660156 581.734375 1669.601562 596.660156 1702.941406 C 611.585938 1736.289062 596.652344 1775.421875 563.304688 1790.351562 Z M 802.035156 1656.410156 L 800.417969 1653.988281 L 762.617188 1596.980469 L 742.765625 1567.039062 L 722.96875 1536.78125 L 685.648438 1479.761719 L 657.171875 1436.070312 L 628.914062 1392.238281 L 572.398438 1304.601562 C 553.542969 1275.5 535.160156 1246.121094 516.515625 1216.898438 C 516.464844 1216.820312 516.414062 1216.738281 516.363281 1216.660156 L 470.492188 1144.429688 L 460.464844 1128.628906 C 448.195312 1109.398438 436.015625 1090.109375 423.867188 1070.800781 C 421.589844 1067.179688 419.316406 1063.558594 417.042969 1059.941406 L 321.835938 1119.511719 L 207.355469 1190.601562 L 92.652344 1261.320312 L 0 1318.078125 C 31.574219 1370.050781 63.277344 1421.941406 94.59375 1474.058594 L 148.421875 1563.351562 L 201.929688 1652.828125 L 255.242188 1742.441406 C 272.96875 1772.328125 290.761719 1802.179688 308.273438 1832.210938 L 404.992188 1997.300781 L 506.183594 1938.910156 C 525.667969 1927.71875 545.042969 1916.359375 564.613281 1905.320312 L 681.839844 1838.71875 L 740.671875 1805.789062 C 760.296875 1794.828125 779.867188 1783.789062 799.589844 1772.988281 L 858.722656 1740.550781 L 829.472656 1697.328125 L 802.035156 1656.410156" fill="#f66b00"/></g><g id="change1_3"><path d="M 1677.550781 507.773438 C 1654.527344 511.367188 1630.335938 520.265625 1607.433594 534.632812 C 1604.875 536.253906 1602.386719 537.914062 1599.941406 539.613281 C 1596.691406 541.847656 1593.53125 544.160156 1590.476562 546.542969 C 1587.855469 548.589844 1585.324219 550.683594 1582.855469 552.820312 C 1577.917969 557.09375 1573.28125 561.535156 1568.972656 566.105469 C 1552.472656 583.644531 1540.707031 603.132812 1534.570312 622.476562 C 1526.769531 647.097656 1528.09375 671.457031 1540.453125 691.152344 C 1548.992188 704.757812 1561.847656 714.550781 1577.390625 720.542969 C 1584.410156 723.253906 1591.953125 725.191406 1599.941406 726.328125 C 1616.445312 728.675781 1634.707031 727.636719 1653.4375 723.15625 C 1661.414062 721.25 1669.488281 718.703125 1677.550781 715.53125 C 1688.65625 711.167969 1699.738281 705.628906 1710.523438 698.863281 C 1727.996094 687.890625 1742.921875 674.847656 1754.898438 660.769531 C 1784.078125 626.488281 1795.65625 586.023438 1783.351562 554.121094 C 1781.777344 550.054688 1779.859375 546.113281 1777.503906 542.355469 C 1758.984375 512.863281 1720.316406 501.109375 1677.550781 507.773438" fill="#f66b00"/></g><g id="change1_4"><path d="M 1792.523438 748.308594 C 1773.292969 734.65625 1744.855469 730.640625 1713.617188 736.1875 C 1712.164062 736.445312 1710.722656 736.707031 1709.273438 736.996094 C 1698.894531 739.113281 1688.238281 742.289062 1677.535156 746.484375 C 1667.453125 750.445312 1657.324219 755.320312 1647.34375 761.125 C 1645.117188 762.417969 1642.921875 763.746094 1640.714844 765.121094 C 1625.152344 774.886719 1611.46875 786.085938 1599.933594 798.027344 C 1592.574219 805.632812 1586.089844 813.542969 1580.578125 821.589844 C 1557.855469 854.800781 1551.566406 890.257812 1567.636719 915.859375 C 1574.960938 927.535156 1586.148438 935.914062 1599.933594 941.007812 C 1621.191406 948.871094 1648.625 948.886719 1677.535156 941.089844 C 1680.765625 940.214844 1684.019531 939.230469 1687.292969 938.164062 C 1703.21875 932.949219 1719.421875 925.433594 1735.15625 915.558594 C 1801.59375 873.851562 1834.320312 806.363281 1808.246094 764.816406 C 1804.136719 758.289062 1798.816406 752.785156 1792.523438 748.308594" fill="#f66b00"/></g><g id="change1_5"><path d="M 1779.90625 994.039062 C 1779.90625 994.039062 1778.625 992.246094 1776.324219 989.015625 C 1775.59375 988.082031 1774.84375 987.167969 1774.046875 986.28125 C 1755.652344 965.515625 1723.257812 958.285156 1688.300781 965.105469 C 1684.730469 965.800781 1681.148438 966.644531 1677.542969 967.628906 C 1662.664062 971.707031 1647.527344 978.265625 1633.023438 987.378906 C 1620.386719 995.3125 1609.285156 1004.507812 1599.933594 1014.429688 C 1599.492188 1014.886719 1599.058594 1015.367188 1598.628906 1015.839844 C 1567.152344 1050.046875 1556.339844 1092.558594 1575.167969 1122.550781 C 1578.199219 1127.378906 1581.855469 1131.648438 1586.046875 1135.378906 C 1590.191406 1139.046875 1594.835938 1142.179688 1599.933594 1144.777344 C 1620.71875 1155.386719 1648.667969 1156.878906 1677.542969 1148.957031 C 1692.425781 1144.878906 1707.539062 1138.328125 1722.054688 1129.207031 C 1776.050781 1095.320312 1802.0625 1038.597656 1782.871094 999.453125 C 1781.976562 997.613281 1781 995.796875 1779.90625 994.039062" fill="#f66b00"/></g><g id="change1_6"><path d="M 1164.921875 543.570312 L 1338.371094 543.570312 C 1351.851562 524.511719 1365.390625 506.519531 1379.371094 489.121094 C 1380.269531 488.019531 1381.191406 486.910156 1382.101562 485.800781 L 1082.53125 485.800781 C 1066.578125 485.800781 1053.648438 498.730469 1053.648438 514.691406 L 1053.648438 857.761719 C 1053.648438 873.710938 1066.578125 886.640625 1082.53125 886.640625 L 1425.601562 886.640625 C 1441.550781 886.640625 1454.488281 873.710938 1454.488281 857.761719 L 1454.488281 606.921875 C 1450.25 616.621094 1445.820312 626.441406 1441.121094 636.480469 C 1427.460938 665.691406 1412.621094 694.800781 1396.71875 723.609375 L 1396.71875 828.878906 L 1111.410156 828.878906 L 1111.410156 543.570312 L 1164.921875 543.570312" fill="#f66b00"/></g><g id="change1_7"><path d="M 1431.171875 486.351562 C 1423.460938 495.25 1416.050781 504.148438 1408.910156 512.871094 C 1400.890625 522.859375 1393.011719 533.070312 1385.199219 543.570312 C 1374.25 558.289062 1363.429688 573.589844 1352.539062 589.789062 C 1328.53125 625.558594 1304.460938 666.121094 1278.949219 713.800781 L 1277.839844 715.871094 L 1276.128906 714.269531 C 1258.539062 697.898438 1243.550781 684.609375 1228.960938 672.429688 C 1216.289062 661.691406 1202.171875 650.648438 1184.5 637.660156 C 1179.339844 633.769531 1174.039062 629.96875 1168.671875 626.238281 C 1162.671875 622.050781 1156.550781 617.980469 1150.339844 614.019531 C 1147.980469 612.519531 1145.621094 611 1143.230469 609.53125 C 1143.109375 609.890625 1143 610.238281 1142.878906 610.601562 C 1144.820312 614.691406 1146.820312 618.769531 1148.871094 622.828125 C 1151.148438 627.359375 1153.511719 631.851562 1155.921875 636.308594 C 1159.171875 642.339844 1162.519531 648.328125 1165.988281 654.199219 C 1176.789062 672.960938 1186.210938 688.210938 1195.640625 702.210938 C 1215.371094 732.050781 1237.570312 762.378906 1261.660156 792.359375 C 1263.789062 795.011719 1266.460938 797.398438 1269.371094 799.261719 C 1274.511719 802.53125 1280.429688 804.269531 1286.488281 804.269531 C 1297.429688 804.269531 1307.46875 798.761719 1313.351562 789.539062 L 1315.371094 786.410156 C 1345.449219 739.199219 1372.761719 690.539062 1396.71875 641.46875 C 1400.140625 634.460938 1403.5 627.441406 1406.78125 620.421875 C 1421.171875 589.660156 1433.210938 560.898438 1443.601562 532.460938 C 1446.738281 523.691406 1449.890625 514.671875 1452.960938 505.46875 C 1459.398438 486.160156 1465.460938 465.988281 1470.128906 445.121094 C 1456.199219 458.378906 1443.300781 472.371094 1431.171875 486.351562" fill="#f66b00"/></g></g></svg>